<svg width="256" height="256" xmlns="http://www.w3.org/2000/svg" xmlns:xlink="http://www.w3.org/1999/xlink"><use xlink:href="#a" fill="#111"/><g transform="translate(-4499 -1304)"><mask id="c"><use xlink:href="#b" fill="#fff" transform="translate(4582 1387)"/></mask><g mask="url(#c)"><use xlink:href="#d" transform="translate(4582 1387)" fill="#FFF"/></g></g><use xlink:href="#e" transform="translate(83 150)" fill="#FFF"/><defs><path id="a" d="M256 128c0 70.692-57.308 128-128 128C57.308 256 0 198.692 0 128 0 57.308 57.308 0 128 0c70.692 0 128 57.308 128 128z"/><path id="b" d="M0 0h90v90H0V0z"/><path id="d" d="M0 0v-10h-10V0H0zm90 0h10v-10H90V0zm0 90v10h10V90H90zM0 90h-10v10H0V90zm0-80h90v-20H0v20zM80 0v90h20V0H80zm10 80H0v20h90V80zM10 90V0h-20v90h20z"/><path id="e" d="M0 0h90v23H0V0z"/></defs></svg>